<svg xmlns="http://www.w3.org/2000/svg" viewBox="0 0 64 64" shape-rendering="crispEdges">
  <rect width="64" height="64" rx="10" fill="#151515"/>
  <rect x="6" y="6" width="52" height="52" rx="8" fill="#1c1f22"/>
  <g fill="#3cf0ff">
    <rect x="18" y="18" width="8" height="8"/>
    <rect x="26" y="18" width="8" height="8"/>
    <rect x="34" y="18" width="8" height="8"/>

    <rect x="18" y="26" width="8" height="8"/>
    <rect x="34" y="26" width="8" height="8"/>

    <rect x="18" y="34" width="8" height="8"/>
    <rect x="26" y="34" width="8" height="8"/>
    <rect x="34" y="34" width="8" height="8"/>
  </g>
  <g fill="#ff5eda">
    <rect x="42" y="26" width="8" height="8"/>
    <rect x="42" y="34" width="8" height="8"/>
    <rect x="10" y="26" width="8" height="8"/>
    <rect x="10" y="34" width="8" height="8"/>
  </g>
  <g fill="#f9cf7a">
    <rect x="26" y="42" width="8" height="8"/>
  </g>
</svg>
